HIERARCHY
ROOT Hips
{
	OFFSET -0.001795 -0.223333 0.028219
	CHANNELS 6 Xposition Yposition Zposition Zrotation Yrotation Xrotation 
	JOINT LeftUpLeg
	{
		OFFSET 0.069520 -0.091406 -0.006815
		CHANNELS 3 Zrotation Yrotation Xrotation
		JOINT LeftLeg
		{
			OFFSET 0.034277 -0.375199 -0.004496
			CHANNELS 3 Zrotation Yrotation Xrotation
			JOINT LeftFoot
			{
				OFFSET -0.013596 -0.397961 -0.043693
				CHANNELS 3 Zrotation Yrotation Xrotation
				JOINT LeftToe
				{
					OFFSET 0.026358 -0.055791 0.119288
					CHANNELS 3 Zrotation Yrotation Xrotation
					End Site
					{
						OFFSET 0.000000 0.000000 0.000000
					}
				}
			}
		}
	}
	JOINT RightUpLeg
	{
		OFFSET -0.067670 -0.090522 -0.004320
		CHANNELS 3 Zrotation Yrotation Xrotation
		JOINT RightLeg
		{
			OFFSET -0.038290 -0.382569 -0.008850
			CHANNELS 3 Zrotation Yrotation Xrotation
			JOINT RightFoot
			{
				OFFSET 0.015774 -0.398415 -0.042312
				CHANNELS 3 Zrotation Yrotation Xrotation
				JOINT RightToe
				{
					OFFSET -0.025372 -0.048144 0.123348
					CHANNELS 3 Zrotation Yrotation Xrotation
					End Site
					{
						OFFSET 0.000000 0.000000 0.000000
					}
				}
			}
		}
	}
	JOINT Spine
	{
		OFFSET -0.002533 0.108963 -0.026696
		CHANNELS 3 Zrotation Yrotation Xrotation
		JOINT Spine1
		{
			OFFSET 0.005487 0.135180 0.001092
			CHANNELS 3 Zrotation Yrotation Xrotation
			JOINT Spine2
			{
				OFFSET 0.001457 0.052922 0.025425
				CHANNELS 3 Zrotation Yrotation Xrotation
				JOINT Neck
				{
					OFFSET -0.002778 0.213870 -0.042857
					CHANNELS 3 Zrotation Yrotation Xrotation
					JOINT Head
					{
						OFFSET 0.005152 0.064970 0.051349
						CHANNELS 3 Zrotation Yrotation Xrotation
						End Site
						{
							OFFSET 0.000000 0.000000 0.000000
						}
					}
				}
				JOINT LeftShoulder
				{
					OFFSET 0.078845 0.121749 -0.034090
					CHANNELS 3 Zrotation Yrotation Xrotation
					JOINT LeftArm
					{
						OFFSET 0.090977 0.030469 -0.008868
						CHANNELS 3 Zrotation Yrotation Xrotation
						JOINT LeftForeArm
						{
							OFFSET 0.259612 -0.012772 -0.027456
							CHANNELS 3 Zrotation Yrotation Xrotation
							JOINT LeftHand
							{
								OFFSET 0.249234 0.008986 -0.001171
								CHANNELS 3 Zrotation Yrotation Xrotation
								End Site
								{
									OFFSET 0.000000 0.000000 0.000000
								}
							}
						}
					}
				}
				JOINT RightShoulder
				{
					OFFSET -0.081759 0.118833 -0.038615
					CHANNELS 3 Zrotation Yrotation Xrotation
					JOINT RightArm
					{
						OFFSET -0.096012 0.032551 -0.009143
						CHANNELS 3 Zrotation Yrotation Xrotation
						JOINT RightForeArm
						{
							OFFSET -0.253742 -0.013329 -0.021401
							CHANNELS 3 Zrotation Yrotation Xrotation
							JOINT RightHand
							{
								OFFSET -0.255298 0.007772 -0.005559
								CHANNELS 3 Zrotation Yrotation Xrotation
								End Site
								{
									OFFSET 0.000000 0.000000 0.000000
								}
							}
						}
					}
				}
			}
		}
	}
}
MOTION
Frames: 14
Frame Time: 0.050000
-0.073039 0.959213 0.012167 -2.490183 -10.188712 4.272779 6.740516 0.082679 1.602375 -5.513886 0.661031 -5.349345 17.060540 29.362848 18.364430 0.000000 0.000000 0.000000 -2.989098 1.181590 -12.797493 1.882617 -0.113744 1.479605 -1.783335 -12.548511 22.520823 0.000000 0.000000 0.000000 1.823397 -0.861285 21.270441 5.176537 -0.433367 -27.645936 -1.596344 -9.053575 24.589070 -6.421325 2.924915 -26.693237 0.000000 0.000000 0.000000 -11.268932 -24.371125 13.391830 -38.576172 -67.972396 19.763729 21.927037 -17.111048 -2.267806 0.000000 0.000000 0.000000 -8.406641 26.327438 7.740382 32.126100 54.049663 6.024802 -27.279159 23.693757 -5.205780 0.000000 0.000000 0.000000 
-0.074094 0.958850 0.009014 -2.394886 -10.235682 4.591167 7.343605 0.041958 0.612064 -6.306198 0.738841 -5.085927 17.406073 30.045743 17.390309 0.000000 0.000000 0.000000 -2.717189 1.260085 -13.419593 1.841832 -0.097580 1.880171 -2.240304 -13.132239 22.043893 0.000000 0.000000 0.000000 1.675706 -0.831809 21.351608 4.865513 -0.416010 -27.139440 -0.839530 -8.043297 24.484623 -6.648017 3.264625 -24.891294 0.000000 0.000000 0.000000 -9.521161 -26.382991 13.565793 -35.606007 -69.728891 18.842277 22.760724 -13.226428 -1.827420 0.000000 0.000000 0.000000 -10.307744 27.200591 7.735170 25.773049 56.799955 3.861204 -24.132596 17.741120 -3.187814 0.000000 0.000000 0.000000 
-0.074893 0.958484 0.008141 -2.488878 -10.522432 4.544133 7.467135 0.046597 0.529315 -6.399389 0.754403 -4.961549 17.065964 29.642036 17.088223 0.000000 0.000000 0.000000 -2.576827 1.291978 -13.622024 1.656678 -0.056653 2.552698 -2.051962 -12.749694 21.317075 0.000000 0.000000 0.000000 1.926458 -0.882277 21.912195 4.316389 -0.335423 -26.874039 -0.319059 -7.901829 24.526812 -6.242583 3.077259 -23.304429 0.000000 0.000000 0.000000 -9.885897 -25.389515 13.238459 -36.630445 -68.380975 18.768379 22.980809 -15.537432 -2.176995 0.000000 0.000000 0.000000 -11.061696 26.902027 7.600912 25.286697 56.725192 3.563179 -24.796006 19.796751 -3.744396 0.000000 0.000000 0.000000 
-0.075205 0.958240 0.009535 -2.387161 -10.647623 4.929477 6.781247 0.025977 0.233744 -6.504798 0.769331 -4.805108 17.566364 30.503011 16.444322 0.000000 0.000000 0.000000 -2.768166 1.369374 -14.471549 1.887784 -0.053428 3.353967 -2.450326 -13.277251 20.861617 0.000000 0.000000 0.000000 1.979536 -0.883434 21.521875 3.849326 -0.208188 -27.239084 -0.215733 -8.623297 25.675542 -6.551239 3.176866 -22.238676 0.000000 0.000000 0.000000 -10.990472 -23.847806 13.056536 -39.883269 -65.226010 19.045489 25.028395 -21.268425 -3.269901 0.000000 0.000000 0.000000 -10.305485 25.464453 7.420507 30.405809 54.264869 5.084956 -30.569530 28.842070 -7.423992 0.000000 0.000000 0.000000 
-0.075798 0.958123 0.012882 -2.170112 -10.598651 5.379584 6.225990 0.033554 0.716830 -5.699146 0.676542 -5.972103 17.306978 29.960137 17.207628 0.000000 0.000000 0.000000 -2.978677 1.409320 -14.998107 1.441887 0.014026 3.854565 -2.684746 -13.462850 20.042620 0.000000 0.000000 0.000000 2.274660 -0.934330 20.727113 3.876918 -0.221048 -27.082585 -0.888313 -9.174307 26.052034 -6.307592 2.986060 -21.238042 0.000000 0.000000 0.000000 -13.399321 -20.365589 12.321361 -45.637068 -59.513886 18.882656 27.203415 -32.723263 -5.327311 0.000000 0.000000 0.000000 -8.584057 21.864688 6.782206 39.433368 46.861178 6.575053 -43.112245 49.156018 -20.363483 0.000000 0.000000 0.000000 
-0.077203 0.957812 0.017469 -1.947258 -10.966260 5.527925 5.413192 0.059738 1.206348 -4.769575 0.600012 -6.047594 17.460974 30.191078 17.196785 0.000000 0.000000 0.000000 -3.585398 1.367529 -14.950132 1.807321 -0.014900 4.142742 -2.286786 -12.670865 19.020600 0.000000 0.000000 0.000000 2.071885 -0.865953 20.210179 4.306041 -0.291450 -27.202730 -1.511346 -10.111001 26.884838 -5.963730 2.606851 -20.541429 0.000000 0.000000 0.000000 -16.053441 -15.222347 10.765713 -49.488248 -51.807804 15.991430 28.050892 -49.300079 -7.695945 0.000000 0.000000 0.000000 -6.810919 16.758617 5.631388 44.889191 36.630962 4.622070 -74.365929 72.170327 -59.476404 0.000000 0.000000 0.000000 
-0.079986 0.957611 0.021950 -1.676237 -11.047074 5.659626 5.029299 0.070842 1.395473 -4.391288 0.568147 -6.010974 16.943054 29.724931 16.198807 0.000000 0.000000 0.000000 -3.692066 1.338548 -14.701852 1.465429 0.040929 4.545347 -2.093513 -11.918181 17.165923 0.000000 0.000000 0.000000 1.560154 -0.738315 18.914897 5.248054 -0.516232 -26.700806 -2.424685 -11.049652 27.335753 -5.238556 2.005204 -19.741017 0.000000 0.000000 0.000000 -18.968552 -10.665756 9.392398 -51.035170 -43.727061 11.559395 24.260204 -63.438913 -6.825988 0.000000 0.000000 0.000000 -5.308015 12.387447 4.443854 46.347865 25.433759 1.052620 -159.833139 73.104228 -157.188725 0.000000 0.000000 0.000000 
-0.084147 0.956832 0.025055 -1.705776 -11.121872 5.653878 5.058027 0.087072 1.654209 -4.005079 0.531708 -5.341009 16.931389 29.583225 16.702244 0.000000 0.000000 0.000000 -3.609278 1.322577 -14.453747 1.355420 0.071532 4.951187 -1.879036 -11.257715 15.986484 0.000000 0.000000 0.000000 1.416790 -0.694444 18.078249 5.926391 -0.646734 -26.718297 -3.463356 -11.583349 28.273484 -4.927810 1.674509 -19.514905 0.000000 0.000000 0.000000 -20.530867 -6.633658 7.671844 -53.083118 -37.418285 8.475667 12.540776 -72.022292 1.481903 0.000000 0.000000 0.000000 -3.887607 8.186703 3.113429 47.064526 17.542876 -1.616860 174.696589 60.237394 164.692599 0.000000 0.000000 0.000000 
-0.089050 0.956319 0.026361 -1.876308 -11.454272 5.361397 5.549045 0.097216 1.742525 -4.048815 0.535417 -4.514054 17.045146 29.885482 16.139700 0.000000 0.000000 0.000000 -3.065325 1.298280 -13.832631 1.264445 0.089781 5.072592 -1.609391 -10.562451 15.026049 0.000000 0.000000 0.000000 1.194575 -0.630301 17.196739 6.229355 -0.748368 -26.366910 -4.122135 -12.334790 28.844890 -4.345279 1.121512 -19.394201 0.000000 0.000000 0.000000 -22.051817 -3.843316 6.632857 -53.099152 -32.886293 5.751259 3.076602 -75.912315 9.652098 0.000000 0.000000 0.000000 -2.794748 5.177146 2.033745 47.404347 12.028265 -3.574822 169.498694 54.097369 151.858499 0.000000 0.000000 0.000000 
-0.093991 0.955862 0.026180 -2.008346 -11.584071 5.319597 6.175999 0.087452 1.512723 -4.031723 0.533652 -3.880988 16.983490 29.674450 16.569922 0.000000 0.000000 0.000000 -2.641938 1.312951 -13.705319 1.248870 0.101009 5.259629 -1.876861 -10.702999 13.916310 0.000000 0.000000 0.000000 1.450718 -0.669293 17.010751 6.622580 -0.817469 -26.469287 -4.905215 -12.825132 29.358942 -3.746099 0.589810 -19.723170 0.000000 0.000000 0.000000 -23.162644 -2.448704 6.258993 -53.683879 -30.866674 4.582591 3.363350 -76.692821 10.122065 0.000000 0.000000 0.000000 -2.504997 3.449906 1.437270 48.474876 9.126299 -4.761559 165.271519 52.486532 141.759222 0.000000 0.000000 0.000000 
-0.098469 0.955902 0.025021 -2.172074 -12.294481 5.142846 6.693586 0.099737 1.414188 -4.083300 0.545328 -3.471935 17.790637 30.467319 17.791490 0.000000 0.000000 0.000000 -2.268660 1.328633 -13.577187 1.301339 0.098858 5.253378 -1.828307 -10.612446 13.590780 0.000000 0.000000 0.000000 1.682043 -0.687531 16.859185 6.686991 -0.877584 -26.125423 -5.247372 -13.170882 29.526107 -4.005089 0.601831 -20.690418 0.000000 0.000000 0.000000 -23.526383 -1.675441 6.097743 -54.733031 -31.360022 5.026864 7.580386 -75.293264 6.989841 0.000000 0.000000 0.000000 -1.847766 2.555673 0.983825 48.764840 8.375412 -5.046961 162.154483 55.217119 136.898904 0.000000 0.000000 0.000000 
-0.102720 0.956175 0.023187 -2.350081 -12.815481 4.989608 7.288336 0.122964 1.573079 -4.481103 0.594107 -3.955294 17.948013 30.470394 18.543000 0.000000 0.000000 0.000000 -1.905788 1.320344 -13.267103 1.348671 0.099091 5.311640 -2.173360 -11.111491 13.068618 0.000000 0.000000 0.000000 2.232213 -0.772331 17.094587 6.730445 -0.925751 -25.843041 -5.485903 -13.236311 29.376789 -3.681807 0.316953 -21.420028 0.000000 0.000000 0.000000 -24.161300 -1.716952 6.400361 -55.454861 -32.809753 5.880359 12.601223 -73.890657 3.224513 0.000000 0.000000 0.000000 -1.299654 2.792665 0.903093 48.729556 8.656145 -4.850755 160.172534 58.353505 135.314932 0.000000 0.000000 0.000000 
-0.107009 0.956198 0.020700 -2.223612 -13.315715 5.346445 7.437561 0.108139 1.039947 -4.560012 0.607568 -3.845150 18.323336 30.797809 19.117271 0.000000 0.000000 0.000000 -1.830373 1.382925 -13.735385 1.396888 0.090818 5.175452 -2.214378 -11.372882 13.425679 0.000000 0.000000 0.000000 2.642512 -0.838074 17.426155 6.658018 -0.914654 -25.795269 -5.376045 -12.950592 29.152392 -4.152400 0.595067 -22.699092 0.000000 0.000000 0.000000 -24.243182 -2.962386 7.245104 -55.817824 -35.440258 7.442748 19.075625 -72.184595 -1.642978 0.000000 0.000000 0.000000 -1.053976 3.811161 1.155903 48.883086 9.649088 -4.450056 158.843540 60.620172 134.826467 0.000000 0.000000 0.000000 
-0.111703 0.956547 0.017797 -2.267432 -13.680113 5.739297 7.638458 0.101434 0.759138 -4.413579 0.593868 -4.366301 17.853571 30.033030 19.490965 0.000000 0.000000 0.000000 -1.546070 1.446011 -14.092439 1.316966 0.098479 5.074262 -2.135026 -11.337773 13.568877 0.000000 0.000000 0.000000 3.210362 -0.939264 17.736330 6.500411 -0.888538 -25.756262 -5.133980 -12.571008 28.536327 -4.247904 0.703769 -22.861837 0.000000 0.000000 0.000000 -24.255851 -4.547925 8.213262 -56.047376 -38.128106 9.086415 23.987442 -70.234365 -5.205827 0.000000 0.000000 0.000000 -0.619579 5.605140 1.620204 48.211461 11.414944 -3.607435 160.016337 64.198811 139.518781 0.000000 0.000000 0.000000 
